Patient4_TMGait_0pt4_03_left_28_GRF.mot
version=1
nRows=26
nColumns=19
inDegrees=no
endheader
time	F1x	F1y	F1z	M1x	M1y	M1z	F2x	F2y	F2z	M2x	M2y	M2z	EC1x	EC1y	EC1z	EC2x	EC2y	EC2z
36.87	-0.66161	7.0274	-1.3865	-1.9476	0.85152	2.8096	-20.8966	735.7285	-66.5048	289.7546	88.4568	819.399	-0.0592	0.0182	-0.0073	-0.0462	0.0165	0.9585
36.8834	-0.55118	5.3673	-0.84198	-1.5308	0.41848	2.7407	-22.0589	738.9402	-66.4981	291.4529	87.1459	819.8612	-0.0592	0.0182	-0.0073	-0.0462	0.0165	0.9585
36.8967	-0.42717	4.0196	-0.3906	-1.1905	0.073264	2.7304	-22.401	743.7886	-66.0659	293.8056	85.2325	821.4338	-0.0592	0.0182	-0.0073	-0.0462	0.0165	0.9585
36.9101	-0.31314	3.0494	-0.052289	-0.94395	-0.17968	2.7729	-21.8371	750.3699	-65.3109	296.8261	82.8725	824.328	-0.0592	0.0182	-0.0073	-0.0462	0.0165	0.9585
36.9234	-0.23162	2.4254	0.17724	-0.78336	-0.34797	2.851	-20.4345	758.4538	-64.3866	300.4101	80.2592	828.4149	-0.0592	0.0182	-0.0073	-0.0462	0.0165	0.9585
36.9368	-0.19134	2.0723	0.31334	-0.68887	-0.44386	2.9373	-18.3147	767.4842	-63.4214	304.3323	77.5421	833.2034	-0.0592	0.0182	-0.0073	-0.0462	0.0165	0.9585
36.9501	-0.20365	1.8997	0.38464	-0.63471	-0.49442	2.9959	-15.6485	776.6559	-62.5038	308.2721	74.8279	837.9426	-0.0592	0.0182	-0.0073	-0.0462	0.0165	0.9585
36.9635	-0.25399	1.7942	0.41718	-0.59189	-0.52636	2.9568	-12.58	785.0156	-61.6628	311.8546	72.1543	841.7025	-0.0592	0.0182	-0.0073	-0.0462	0.0165	0.9585
36.9769	-0.34631	1.6322	0.43369	-0.52804	-0.56613	2.7419	-9.2435	791.6142	-60.899	314.7029	69.5304	843.5551	-0.0592	0.0182	-0.0073	-0.0462	0.0165	0.9585
36.9902	-0.47498	1.2936	0.45018	-0.41003	-0.62878	2.2567	-5.7432	795.6012	-60.1783	316.482	66.9288	842.6568	-0.0592	0.0182	-0.0073	-0.0462	0.0165	0.9585
37.0036	-0.63983	0.6676	0.47588	-0.206	-0.7199	1.4073	-2.1496	796.3491	-59.4666	316.9477	64.3225	838.3912	-0.0592	0.0182	-0.0073	-0.0462	0.0165	0.9585
37.0169	-0.82542	-0.33824	0.5113	0.11163	-0.83253	0.10688	1.5041	793.5776	-58.7143	315.9935	61.6701	830.5052	-0.0592	0.0182	-0.0073	-0.0462	0.0165	0.9585
37.0303	-0.99481	-1.7639	0.54052	0.55673	-0.93781	-1.6841	5.2169	787.381	-57.9073	313.6627	58.9601	819.1339	-0.0592	0.0182	-0.0073	-0.0462	0.0165	0.9585
37.0436	-1.0864	-3.5569	0.54142	1.1154	-0.98706	-3.8993	8.9857	778.2103	-57.068	310.1417	56.2167	804.7864	-0.0592	0.0182	-0.0073	-0.0462	0.0165	0.9585
37.057	-0.9919	-5.5365	0.47071	1.7294	-0.89124	-6.3277	12.8167	766.801	-56.2712	305.7314	53.514	788.2582	-0.0592	0.0182	-0.0073	-0.0462	0.0165	0.9585
37.0704	-0.58458	-7.3085	0.28807	2.2725	-0.5542	-8.4992	16.7026	754.0947	-55.6076	300.8122	50.9467	770.55	-0.0592	0.0182	-0.0073	-0.0462	0.0165	0.9585
37.0837	0.31535	-8.1995	-0.065029	2.5309	0.15006	-9.6241	20.6356	741.0962	-55.1784	295.7888	48.6187	752.7141	-0.0592	0.0182	-0.0073	-0.0462	0.0165	0.9585
37.0971	1.8868	-7.205	-0.64356	2.1897	1.3429	-8.513	24.594	728.7232	-55.0661	291.0273	46.6187	735.7099	-0.0592	0.0182	-0.0073	-0.0462	0.0165	0.9585
37.1104	4.2968	-2.9475	-1.5042	0.82207	3.1362	-3.5355	28.5183	717.6252	-55.3133	286.7833	45.0067	720.2304	-0.0592	0.0182	-0.0073	-0.0462	0.0165	0.9585
37.1238	7.6373	6.2728	-2.6607	-2.0968	5.5715	7.3226	32.297	707.997	-55.8986	283.1292	43.7976	706.5259	-0.0592	0.0182	-0.0073	-0.0462	0.0165	0.9585
37.1371	11.8286	22.3032	-4.0666	-7.1369	8.5646	26.2621	35.7377	699.4355	-56.7267	279.8934	42.9626	694.2886	-0.0592	0.0182	-0.0073	-0.0462	0.0165	0.9585
37.1505	16.4991	46.7802	-5.5549	-14.8026	11.7971	55.2335	38.5744	690.9002	-57.631	276.6429	42.4389	682.6144	-0.0592	0.0182	-0.0073	-0.0462	0.0165	0.9585
37.1639	20.8236	80.5462	-6.7935	-25.3442	14.6102	95.2561	40.4868	680.8361	-58.3764	272.7347	42.1273	670.1047	-0.0592	0.0182	-0.0073	-0.0462	0.0165	0.9585
37.1772	23.415	122.7504	-7.2482	-38.4761	15.9288	145.3608	41.1688	667.4931	-58.6975	267.4477	41.9017	655.1643	-0.0592	0.0182	-0.0073	-0.0462	0.0165	0.9585
37.1906	22.5765	170.0596	-6.1835	-53.1276	14.3468	201.6523	40.4175	649.4079	-58.3388	260.1834	41.6115	636.4421	-0.0592	0.0182	-0.0073	-0.0462	0.0165	0.9585
37.2039	17.7569	216.9808	-2.7347	-67.5431	8.6993	257.6428	38.2216	625.9307	-57.1388	250.6832	41.1224	613.2978	-0.0592	0.0182	-0.0073	-0.0462	0.0165	0.9585
